<svg width="64" height="64" viewBox="0 0 64 64" fill="none" xmlns="http://www.w3.org/2000/svg">
<path d="M61.9958 33.2916C62.0134 32.8757 62.0604 32.4656 62.0604 32.0398C62.0604 31.6638 62.0174 31.2975 62.0037 30.9238C62.1541 30.2001 62.5155 29.462 62.865 28.7765C63.2105 28.012 63.5679 27.3285 63.646 26.9398C63.9626 25.6587 63.2166 24.8882 62.3962 24.3883C61.8102 24.0271 61.1951 23.7908 60.8104 23.5222C60.5917 22.7888 60.3301 22.0692 60.0586 21.3592C59.9804 20.5927 60.0548 19.753 60.121 18.9855C60.2207 18.1389 60.3515 17.3676 60.3105 16.969C59.9453 14.7193 57.5705 14.9497 56.4574 14.6694C56.0102 14.0493 55.5571 13.4352 55.0689 12.8493C54.3345 11.4675 54.2701 9.30773 53.8738 8.66417C52.87 6.58632 50.6376 7.6505 49.5089 7.72191C48.8879 7.2737 48.2453 6.85776 47.5891 6.46423C46.4934 5.31008 45.6575 3.42256 45.1127 2.8561C44.2085 1.90314 43.1323 2.14915 42.2869 2.51626C41.6678 2.78485 41.1327 3.18022 40.6934 3.37857C39.9199 3.14911 39.1409 2.94206 38.3459 2.77214C36.9632 2.07306 35.6215 0.522367 34.9341 0.231361C33.7624 -0.302818 32.8347 0.172825 32.1532 0.802669C31.6592 1.29872 31.2792 1.8523 30.9288 2.18043C30.1369 2.21271 29.3488 2.25853 28.5755 2.35035C27.023 2.17458 25.2097 1.07695 24.4598 1.05839C23.1678 0.897329 22.4336 1.61899 22.0177 2.51224C21.7041 3.13423 21.5216 3.77678 21.2902 4.18787C20.5637 4.47202 19.8626 4.78644 19.1683 5.12226C17.6039 5.40842 15.5749 5.07828 14.8044 5.22779C13.5086 5.46026 13.1288 6.49618 12.9764 7.40833C12.8602 8.07614 12.9022 8.75197 12.8269 9.22745C12.2205 9.74206 11.6268 10.2694 11.0643 10.8298C9.73055 11.6237 7.64083 11.8697 7.04511 12.3093C5.07747 13.5054 6.29334 15.6214 6.47095 16.7473C6.07542 17.4092 5.70531 18.0831 5.35878 18.7793C4.8833 19.3544 4.18121 19.8368 3.56692 20.2888C2.8951 20.7966 2.25355 21.2262 1.99783 21.531C1.09554 22.5025 1.43154 23.5543 1.88946 24.3725C2.23515 24.97 2.64323 25.4661 2.86399 25.882C2.70377 26.6485 2.59339 27.4297 2.49187 28.2157C1.86102 29.6677 0.535944 31.1714 0.200117 31.8852C-0.532247 34.0256 1.61802 34.959 2.4713 35.7384C2.57198 36.541 2.68136 37.3496 2.84726 38.1367C2.77117 39.6775 1.84146 41.5287 1.88929 42.2631C1.81503 44.5657 4.24744 44.7025 5.29138 45.1655C5.63105 45.8625 5.99531 46.5384 6.38499 47.2023C6.6106 47.9171 6.63485 48.7666 6.67499 49.5341C6.73069 50.3738 6.7434 51.149 6.85461 51.526C7.17873 52.8129 8.24124 53.1021 9.1748 53.1703C9.86903 53.2094 10.5087 53.1353 10.9822 53.1802C11.5348 53.7309 12.1188 54.2465 12.7105 54.7523C13.6059 56.0471 14.0883 58.0664 14.5385 58.6932C15.3157 59.7224 16.3576 59.7459 17.2597 59.5134C17.9356 59.3122 18.538 59.0016 19.0018 58.8866C19.702 59.2302 20.4118 59.5505 21.1373 59.8435C21.7496 60.2635 22.2973 60.8845 22.7857 61.4937C23.3372 62.144 23.8314 62.7143 24.1556 62.9468C24.6789 63.3274 25.1973 63.4466 25.673 63.4077C26.1573 63.3314 26.6005 63.0973 26.9952 62.8238C27.5625 62.4331 28.0243 61.9565 28.4208 61.7066C29.1933 61.8023 29.9725 61.8551 30.7604 61.8961C32.2643 62.398 33.8792 63.6361 34.6212 63.8686C35.8731 64.3118 36.6992 63.5503 37.2674 62.8277C37.6776 62.2848 37.9666 61.7046 38.2576 61.3335C39.0447 61.1696 39.8102 60.9586 40.5718 60.7361C42.138 60.7047 44.0657 61.3864 44.8292 61.3609C46.1161 61.2711 46.706 60.4058 47.0029 59.5251C47.2059 58.8472 47.2704 58.1718 47.4265 57.7185C48.0749 57.3319 48.7154 56.9315 49.3287 56.498C50.0298 56.1892 50.8716 56.0548 51.6742 55.9803C52.5178 55.8671 53.2677 55.7735 53.6408 55.6288C54.8809 55.1834 55.1328 54.1544 55.0898 53.1837C55.0743 52.4925 54.9298 51.8382 54.9453 51.3694C55.4317 50.7951 55.8867 50.1938 56.3281 49.5824C56.5995 49.3539 56.8905 49.139 57.2264 48.9554C57.5896 48.7213 57.9823 48.516 58.367 48.3286C59.1324 47.9496 59.8511 47.6373 60.1597 47.3873C61.8413 45.8522 60.3667 43.9951 59.9879 42.9092C60.271 42.1827 60.5445 41.4523 60.775 40.7025C61.5366 39.3472 63.2903 38.1305 63.599 37.449C64.7652 35.473 62.7009 34.1977 61.9958 33.2916ZM32.1395 58.6601C17.4623 58.6601 5.51917 46.7182 5.51917 32.0398C5.51917 17.3636 17.4623 5.42029 32.1395 5.42029C46.8157 5.42029 58.758 17.3636 58.758 32.0398C58.758 46.718 46.8179 58.6601 32.1395 58.6601Z" fill="#F6F3E3"/>
<path d="M32.321 6.8623C18.4561 6.8623 7.17896 18.1386 7.17896 32.0015C7.17896 45.8624 18.4561 57.1387 32.321 57.1387C46.1811 57.1387 57.4592 45.8604 57.4592 32.0015C57.4592 18.1366 46.1791 6.8623 32.321 6.8623ZM32.321 55.5315C19.3457 55.5315 8.78902 44.9779 8.78902 32.0017C8.78902 19.0273 19.3457 8.46785 32.321 8.46785C45.2943 8.46785 55.848 19.0253 55.848 32.0017C55.8481 44.974 45.2943 55.5315 32.321 55.5315Z" fill="#F6F3E3"/>
<path d="M29.9113 46.5145H37.5078L38.6648 19.8235H28.7551L29.9113 46.5145Z" fill="#F6F3E3"/>
<path d="M35.5534 13.6H31.6477V19.1714H35.5534V13.6Z" fill="#F6F3E3"/>
<path d="M19.0732 46.3896H25.2737L26.2178 24.5969H18.1292L19.0732 46.3896Z" fill="#F6F3E3"/>
<path d="M23.6788 19.5167H20.4912V24.0643H23.6788V19.5167Z" fill="#F6F3E3"/>
<path d="M41.6476 46.6046H47.8462L48.7903 24.8109H40.7017L41.6476 46.6046Z" fill="#F6F3E3"/>
<path d="M46.2537 19.7355H43.0635V24.2831H46.2537V19.7355Z" fill="#F6F3E3"/>
</svg>
