<svg width="64" height="64" viewBox="0 0 64 64" fill="none" xmlns="http://www.w3.org/2000/svg">
<path d="M61.9967 33.2964C62.0141 32.8791 62.061 32.4676 62.061 32.0444C62.061 31.6669 62.0181 31.3032 62.0025 30.9279C62.1525 30.2053 62.5152 29.4625 62.8624 28.7798C63.2075 28.0164 63.5665 27.3318 63.6445 26.9447C63.9605 25.6624 63.2135 24.8892 62.3945 24.3919C61.8095 24.0271 61.1912 23.7913 60.8071 23.5251C60.5885 22.7909 60.3273 22.0713 60.0543 21.3605C59.9783 20.5941 60.0504 19.7556 60.1167 18.9882C60.2162 18.1418 60.3489 17.3686 60.3059 16.9718C59.9394 14.7212 57.5659 14.9504 56.4524 14.6706C56.0079 14.0505 55.5533 13.4371 55.0658 12.8521C54.3325 11.4705 54.2683 9.30975 53.8685 8.66411C52.8642 6.58723 50.6331 7.65005 49.506 7.7242C48.8819 7.27663 48.2403 6.86129 47.5851 6.46348C46.4872 5.30997 45.6525 3.42599 45.1064 2.8595C44.2016 1.9029 43.1269 2.14873 42.2807 2.5153C41.6604 2.78535 41.1262 3.18032 40.6855 3.37822C39.9151 3.14909 39.1352 2.9415 38.3374 2.77366C36.9547 2.07257 35.6132 0.524098 34.9276 0.231671C33.7554 -0.303748 32.8272 0.173219 32.1466 0.802162C31.6513 1.2995 31.2739 1.85229 30.922 2.17996C30.1312 2.21202 29.3425 2.25795 28.5682 2.35147C27.0159 2.17411 25.2032 1.07605 24.4524 1.05751C23.1643 0.900528 22.4291 1.625 22.0136 2.5153C21.6996 3.1364 21.5182 3.78004 21.2871 4.19154C20.5636 4.47528 19.8626 4.78641 19.1681 5.12376C17.6041 5.41151 15.5732 5.07984 14.8048 5.22998C13.507 5.46111 13.1267 6.49755 12.9756 7.40823C12.8595 8.07709 12.9014 8.75179 12.8234 9.22775C12.2169 9.74263 11.625 10.27 11.0605 10.8308C9.73067 11.6255 7.63709 11.8693 7.04221 12.311C5.07556 13.5074 6.29136 15.6214 6.46889 16.7475C6.07392 17.4105 5.7045 18.0862 5.35913 18.7786C4.8815 19.356 4.18024 19.8376 3.566 20.289C2.89413 20.7961 2.2515 21.2271 1.99414 21.5312C1.09315 22.5054 1.42849 23.5555 1.88592 24.3725C2.23396 24.9712 2.64079 25.4665 2.86107 25.8839C2.70108 26.6503 2.58901 27.4314 2.48764 28.2163C1.85586 29.6682 0.532676 31.1718 0.195158 31.8884C-0.536158 34.0277 1.61287 34.9618 2.4671 35.736C2.56747 36.5433 2.6787 37.3508 2.84253 38.1367C2.76855 39.6774 1.83632 41.532 1.88592 42.2633C1.81194 44.5624 4.24471 44.7027 5.28899 45.167C5.62818 45.8611 5.99392 46.54 6.38488 47.203C6.61101 47.9186 6.63439 48.7688 6.67246 49.5352C6.73092 50.3737 6.74077 51.1461 6.85483 51.5264C7.17766 52.8133 8.24031 53.1039 9.17454 53.1722C9.86778 53.2111 10.5084 53.1352 10.9822 53.1819C11.5332 53.7319 12.1182 54.2489 12.709 54.7518C13.6062 56.0467 14.0897 58.0672 14.5383 58.6949C15.3173 59.7267 16.3598 59.7481 17.2626 59.5159C17.9373 59.313 18.5429 59.0012 19.0041 58.8862C19.7022 59.2312 20.414 59.5532 21.1405 59.8436C21.7519 60.263 22.3008 60.883 22.7883 61.4935C23.3413 62.1428 23.8326 62.7143 24.1583 62.9462C24.683 63.3265 25.2005 63.4454 25.6775 63.4065C26.1612 63.3303 26.6039 63.0984 26.9997 62.8235C27.5662 62.4334 28.0303 61.9574 28.4253 61.7079C29.1965 61.8054 29.9766 61.8562 30.7635 61.8951C32.2671 62.3963 33.8808 63.6366 34.6237 63.8686C35.8757 64.3112 36.7007 63.5508 37.27 62.8273C37.6815 62.2832 37.9681 61.7039 38.2607 61.3315C39.0446 61.1678 39.811 60.959 40.5716 60.7368C42.1396 60.7054 44.0663 61.3879 44.8307 61.3607C46.1178 61.269 46.7048 60.4049 47.0053 59.5256C47.206 58.8488 47.2725 58.1722 47.4303 57.718C48.0758 57.3318 48.7154 56.9299 49.3318 56.497C50.0318 56.1889 50.8743 56.0544 51.6778 55.9803C52.5223 55.867 53.273 55.7715 53.6416 55.6272C54.8819 55.1826 55.1336 54.1531 55.0945 53.1836C55.0788 52.4895 54.9345 51.838 54.9482 51.3681C55.4357 50.7929 55.8881 50.1922 56.3349 49.58C56.6039 49.3537 56.8945 49.1372 57.2319 48.9559C57.5966 48.7219 57.9884 48.515 58.3707 48.3261C59.1351 47.9476 59.8565 47.6357 60.1668 47.3862C61.8477 45.8514 60.3696 43.993 59.9953 42.9047C60.2779 42.1811 60.5509 41.4498 60.7791 40.7011C61.5416 39.3457 63.2947 38.1289 63.6068 37.4482C64.7676 35.4767 62.7005 34.1992 61.9967 33.2964ZM32.14 58.6637C17.4612 58.6637 5.51963 46.7232 5.51963 32.0444C5.51963 17.3648 17.4612 5.42304 32.14 5.42304C46.8187 5.42304 58.7593 17.3648 58.7593 32.0444C58.7593 46.7232 46.8167 58.6637 32.14 58.6637Z" fill="#F6F3E3"/>
<path d="M40.4688 22.5551C39.7453 18.8888 33.4581 16.7164 31.9984 19.466C30.5406 16.7163 24.2524 18.8887 23.5289 22.5551C22.585 26.3891 17.582 27.444 14.8069 25.4431C14.8069 29.7764 19.4735 29.83 22.3607 30.1098C29.2009 29.8095 31.3635 26.6571 31.9983 25.2168C32.6369 26.6571 34.7976 29.8095 41.6368 30.1098C44.525 29.83 49.1916 29.7763 49.1916 25.4431C46.4108 27.444 41.4129 26.3891 40.4688 22.5551Z" fill="#F6F3E3"/>
<path d="M31.9031 26.7751C28.1169 31.9488 20.5123 30.7768 20.5123 30.7768C20.5123 30.7768 20.1526 37.8636 22.3855 39.7142C22.248 47.9633 31.1738 49.775 33.4107 49.9154C35.6494 50.0539 39.9212 47.3706 39.0202 45.7266C40.8494 43.9345 41.4481 41.7268 41.2589 39.5738C43.2129 39.2929 42.1208 30.962 42.1208 30.962C42.1208 30.962 34.3389 31.2477 31.9031 26.7751Z" fill="#F6F3E3"/>
<path d="M32.2159 8.50629C19.1003 8.50629 8.42798 19.1784 8.42798 32.2942C8.42798 45.4127 19.1001 56.084 32.2159 56.084C45.3345 56.084 56.0057 45.4128 56.0057 32.2942C56.0038 19.1783 45.3345 8.50629 32.2159 8.50629ZM32.2159 55.1731C19.6015 55.1731 9.33883 44.9076 9.33883 32.294C9.33883 19.6815 19.6015 9.41697 32.2159 9.41697C44.8293 9.41697 55.095 19.6815 55.095 32.294C55.0931 44.9076 44.8295 55.1731 32.2159 55.1731Z" fill="#F6F3E3"/>
</svg>
