<svg width="64" height="64" viewBox="0 0 64 64" fill="none" xmlns="http://www.w3.org/2000/svg">
<path d="M39.6775 15.0393L38.9702 15.6644C38.9702 15.6644 35.3579 22.6186 32.7073 27.7956C33.2903 28.9657 33.8152 30.0235 34.2239 30.861L39.6775 15.0393Z" fill="#F6F3E3"/>
<path d="M29.9523 33.2752C27.7224 37.5988 23.0221 39.41 22.6815 39.5382C21.1048 39.9008 19.7424 41.1891 19.2095 42.9361C18.8368 44.1463 18.9069 45.4125 19.3958 46.5044C19.9027 47.6324 20.7922 48.4438 21.9042 48.7824C22.2628 48.8946 22.6355 48.9487 23.0121 48.9527C24.9675 48.9687 26.7767 47.5222 27.4138 45.4465C27.4138 45.4385 27.4138 45.4285 27.4178 45.4205C27.4258 45.4405 27.4278 45.4526 27.4278 45.4526L31.7474 32.8826L31.7534 32.8785L30.4591 32.2254C30.1706 32.8044 29.9863 33.1831 29.9523 33.2752ZM26.0855 45.0418C25.6267 46.5365 24.3685 47.5743 23.0261 47.5642C22.7837 47.5642 22.5433 47.5222 22.3149 47.4541C21.5916 47.2337 21.0086 46.6947 20.668 45.9394C20.3154 45.15 20.2713 44.2284 20.5418 43.3409C21.0006 41.8422 22.2588 40.8064 23.6011 40.8144C23.8436 40.8184 24.08 40.8565 24.3124 40.9266C25.0317 41.147 25.6187 41.686 25.9593 42.4413C26.3099 43.2287 26.354 44.1503 26.0855 45.0418Z" fill="#F6F3E3"/>
<path d="M41.755 39.7225C41.2501 39.5142 36.8324 37.5768 34.7708 33.2913C34.5364 32.564 25.9213 15.5101 25.9213 15.5101L25.2361 14.9271L30.7457 31.7105L32.9897 32.8445L36.9145 45.2782C36.9346 45.3604 36.9526 45.4425 36.9726 45.5267C37.5556 47.6484 39.3488 49.141 41.3222 49.157C41.6809 49.159 42.0375 49.115 42.3841 49.0168C43.5041 48.7102 44.4197 47.9269 44.9526 46.8129C45.4735 45.733 45.5777 44.4668 45.2411 43.2467C44.7442 41.4415 43.3718 40.0972 41.755 39.7225ZM32.03 31.4941C31.6253 31.4921 31.3027 31.1615 31.3027 30.7568C31.3067 30.3501 31.6353 30.0276 32.042 30.0316C32.4467 30.0336 32.7733 30.3641 32.7693 30.7688C32.7653 31.1756 32.4347 31.5001 32.03 31.4941ZM43.7044 46.2079C43.3438 46.9532 42.7447 47.4741 42.0175 47.6744C41.7931 47.7325 41.5627 47.7626 41.3323 47.7606C39.9719 47.7506 38.7297 46.6807 38.311 45.154C38.0645 44.2585 38.1327 43.3368 38.5113 42.5595C38.8719 41.8142 39.471 41.2933 40.2023 41.0929C40.4207 41.0328 40.6551 41.0008 40.8815 41.0028C42.2439 41.0168 43.484 42.0867 43.9068 43.6133C44.1512 44.5109 44.0791 45.4305 43.7044 46.2079Z" fill="#F6F3E3"/>
<path d="M61.9964 33.2932C62.0185 32.8765 62.0625 32.4658 62.0625 32.0411C62.0625 31.6644 62.0205 31.2998 62.0044 30.9251C62.1527 30.2018 62.5193 29.4625 62.868 28.7773C63.2126 28.014 63.5732 27.3288 63.6513 26.9421C63.9659 25.6599 63.2206 24.8885 62.3991 24.3897C61.8141 24.027 61.197 23.7906 60.8144 23.5242C60.598 22.7889 60.3335 22.0696 60.061 21.3604C59.9829 20.593 60.057 19.7536 60.1211 18.9862C60.2233 18.1407 60.3536 17.3674 60.3135 16.9707C59.9448 14.7207 57.5727 14.9511 56.4587 14.6727C56.014 14.0516 55.5612 13.4385 55.0723 12.8535C54.341 11.4711 54.2769 9.30927 53.8762 8.66615C52.8705 6.58851 50.6406 7.65237 49.5126 7.7245C48.8875 7.27772 48.2464 6.86099 47.5912 6.4663C46.4953 5.31228 45.6578 3.42498 45.1149 2.85999C44.2113 1.90431 43.1354 2.15075 42.2879 2.51939C41.6669 2.78786 41.1339 3.18255 40.6931 3.3809C39.9218 3.1505 39.1404 2.94614 38.345 2.77784C36.9646 2.07662 35.6203 0.527906 34.9351 0.23339C33.765 -0.301546 32.8354 0.175289 32.1542 0.80439C31.6573 1.30126 31.2787 1.85623 30.9301 2.1828C30.1387 2.21486 29.3493 2.26094 28.5739 2.3531C27.0212 2.17679 25.208 1.07887 24.4587 1.05883C23.1665 0.896551 22.4332 1.61982 22.0145 2.51338C21.7039 3.13447 21.5216 3.77759 21.2892 4.18831C20.5679 4.47281 19.8647 4.78536 19.1695 5.11994C17.6087 5.40845 15.5752 5.07787 14.8078 5.22613C13.5096 5.46254 13.1289 6.49635 12.9806 7.40594C12.8624 8.07712 12.9045 8.7523 12.8244 9.22713C12.2173 9.74003 11.6263 10.269 11.0633 10.8279C9.73296 11.6253 7.6413 11.8678 7.04426 12.3105C5.07681 13.5066 6.29695 15.6203 6.47125 16.7463C6.07456 17.4074 5.70591 18.0826 5.35931 18.7778C4.88448 19.3569 4.18325 19.8357 3.56817 20.2885C2.89499 20.7954 2.25387 21.2261 1.99742 21.5287C1.09585 22.5024 1.43244 23.5542 1.88923 24.3716C2.23584 24.9687 2.64456 25.4655 2.86494 25.8823C2.70466 26.6476 2.59447 27.429 2.49229 28.2144C1.86119 29.6669 0.534864 31.1715 0.198275 31.8848C-0.533005 34.0245 1.61676 34.9582 2.47225 35.7335C2.57243 36.5389 2.68262 37.3483 2.84691 38.1337C2.77278 39.6744 1.84115 41.5257 1.88923 42.2609C1.81711 44.561 4.24736 44.7012 5.29119 45.162C5.62978 45.8612 5.99642 46.5384 6.38711 47.2016C6.6135 47.9148 6.63754 48.7643 6.67561 49.5337C6.73171 50.3731 6.74373 51.1465 6.85593 51.5231C7.18049 52.8114 8.24035 53.0999 9.17599 53.168C9.8692 53.2101 10.5083 53.134 10.9811 53.178C11.5301 53.727 12.1171 54.2439 12.7082 54.7488C13.6037 56.0451 14.0866 58.0626 14.5354 58.6917C15.3147 59.7235 16.3566 59.7435 17.2581 59.5111C17.9353 59.3088 18.5384 58.9982 18.9992 58.886C19.6984 59.2286 20.4076 59.5512 21.1349 59.8437C21.746 60.2624 22.2929 60.8875 22.7818 61.4926C23.3328 62.1417 23.8256 62.7127 24.1502 62.9471C24.6771 63.3258 25.194 63.446 25.6709 63.4059C26.1537 63.3298 26.5965 63.0974 26.9912 62.8229C27.5582 62.4322 28.023 61.9554 28.4177 61.705C29.189 61.8031 29.9664 61.8532 30.7578 61.8953C32.2604 62.3962 33.8752 63.6363 34.6145 63.8668C35.8667 64.3095 36.6921 63.5482 37.2591 62.8229C37.6699 62.28 37.9604 61.699 38.2509 61.3283C39.0362 61.164 39.7996 60.9537 40.5609 60.7313C42.1277 60.6992 44.055 61.3824 44.8224 61.3564C46.1086 61.2662 46.6977 60.4007 46.9942 59.5211C47.1985 58.844 47.2647 58.1668 47.4209 57.716C48.064 57.3293 48.7072 56.9266 49.3223 56.4958C50.0235 56.1873 50.865 56.0531 51.6664 55.9769C52.5118 55.8627 53.2631 55.7686 53.6298 55.6263C54.868 55.1795 55.1224 54.1517 55.0843 53.18C55.0643 52.4868 54.9241 51.8337 54.9381 51.3669C55.4269 50.7939 55.8797 50.1888 56.3205 49.5777C56.593 49.3493 56.8835 49.135 57.2161 48.9527C57.5827 48.7182 57.9754 48.5099 58.3581 48.3235C59.1214 47.9469 59.8407 47.6343 60.1512 47.3839C61.8341 45.8452 60.3596 43.99 59.9789 42.9041C60.2654 42.1788 60.5359 41.4475 60.7663 40.6982C61.5296 39.3418 63.2847 38.1257 63.5912 37.4445C64.7713 35.4751 62.7017 34.1968 61.9964 33.2932ZM32.1402 58.6616C17.4625 58.6616 5.51959 46.7207 5.51959 32.0411C5.51959 17.3634 17.4605 5.42047 32.1402 5.42047C46.8199 5.42047 58.7628 17.3654 58.7628 32.0431C58.7628 46.7207 46.8219 58.6616 32.1402 58.6616Z" fill="#F6F3E3"/>
<path d="M32.3204 6.86096C18.4562 6.86096 7.18042 18.1387 7.18042 32.003C7.18042 45.8632 18.4562 57.143 32.3204 57.143C46.1847 57.143 57.4624 45.8632 57.4624 32.003C57.4624 18.1387 46.1847 6.86096 32.3204 6.86096ZM32.3204 55.5321C19.3457 55.5321 8.78924 44.9757 8.78924 32.005C8.78924 19.0283 19.3477 8.47178 32.3204 8.47178C45.2971 8.47178 55.8516 19.0303 55.8516 32.005C55.8516 44.9757 45.2951 55.5321 32.3204 55.5321Z" fill="#F6F3E3"/>
</svg>
